<svg width="16" height="16" viewBox="0 0 16 16" fill="none" xmlns="http://www.w3.org/2000/svg">
<g clip-path="url(#clip0_17_1324)">
<path d="M14.8572 7.42859H10.2858C9.9702 7.42859 9.71436 7.68443 9.71436 8.00002V14.8572C9.71436 15.1727 9.9702 15.4286 10.2858 15.4286H14.8572C15.1728 15.4286 15.4286 15.1727 15.4286 14.8572V8.00002C15.4286 7.68443 15.1728 7.42859 14.8572 7.42859Z" stroke="black" stroke-linecap="round" stroke-linejoin="round"/>
<path d="M14.8572 0.571411H10.2858C9.9702 0.571411 9.71436 0.827249 9.71436 1.14284V3.43998C9.71436 3.75557 9.9702 4.01141 10.2858 4.01141H14.8572C15.1728 4.01141 15.4286 3.75557 15.4286 3.43998V1.14284C15.4286 0.827249 15.1728 0.571411 14.8572 0.571411Z" stroke="black" stroke-linecap="round" stroke-linejoin="round"/>
<path d="M5.71439 0.571411H1.14296C0.827371 0.571411 0.571533 0.827249 0.571533 1.14284V7.99998C0.571533 8.31557 0.827371 8.57141 1.14296 8.57141H5.71439C6.02998 8.57141 6.28582 8.31557 6.28582 7.99998V1.14284C6.28582 0.827249 6.02998 0.571411 5.71439 0.571411Z" stroke="black" stroke-linecap="round" stroke-linejoin="round"/>
<path d="M5.71439 11.9885H1.14296C0.827371 11.9885 0.571533 12.2443 0.571533 12.56V14.8571C0.571533 15.1726 0.827371 15.4285 1.14296 15.4285H5.71439C6.02998 15.4285 6.28582 15.1726 6.28582 14.8571V12.56C6.28582 12.2443 6.02998 11.9885 5.71439 11.9885Z" stroke="black" stroke-linecap="round" stroke-linejoin="round"/>
</g>
<defs>
<clipPath id="clip0_17_1324">
<rect width="16" height="16" fill="white"/>
</clipPath>
</defs>
</svg>
