<svg width="40" height="40" viewBox="0 0 40 40" fill="none" xmlns="http://www.w3.org/2000/svg">
<rect opacity="0.1" width="40" height="40" rx="8" fill="#FF9040"/>
<path d="M17.143 19.2857C19.1154 19.2857 20.7144 17.6867 20.7144 15.7143C20.7144 13.7418 19.1154 12.1428 17.143 12.1428C15.1705 12.1428 13.5715 13.7418 13.5715 15.7143C13.5715 17.6867 15.1705 19.2857 17.143 19.2857Z" stroke="#FF9040" stroke-width="1.1" stroke-linecap="round" stroke-linejoin="round"/>
<path d="M10.7144 29.2856H17.1429H23.5715V28.5112C23.5601 27.4223 23.273 26.354 22.7368 25.4063C22.2007 24.4585 21.4331 23.662 20.5057 23.0913C19.5783 22.5206 18.5214 22.1943 17.4337 22.1428C17.3367 22.1382 17.2398 22.1358 17.1429 22.1356C17.0461 22.1358 16.9492 22.1382 16.8522 22.1428C15.7645 22.1943 14.7076 22.5206 13.7802 23.0913C12.8528 23.662 12.0852 24.4585 11.549 25.4063C11.0129 26.354 10.7257 27.4223 10.7144 28.5112V29.2856Z" stroke="#FF9040" stroke-width="1.1" stroke-linecap="round" stroke-linejoin="round"/>
<path d="M22.8572 19.2857C24.8296 19.2857 26.4286 17.6867 26.4286 15.7143C26.4286 13.7418 24.8296 12.1428 22.8572 12.1428" stroke="#FF9040" stroke-width="1.1" stroke-linecap="round" stroke-linejoin="round"/>
<path d="M26.4287 29.2858H29.2859V28.5112C29.2745 27.4223 28.9873 26.3541 28.4512 25.4063C27.915 24.4585 27.1475 23.6621 26.22 23.0914C25.6206 22.7225 24.9669 22.4557 24.2859 22.2992" stroke="#FF9040" stroke-width="1.1" stroke-linecap="round" stroke-linejoin="round"/>
</svg>
