<svg width="16" height="16" viewBox="0 0 16 16" fill="none" xmlns="http://www.w3.org/2000/svg">
<g clip-path="url(#clip0_17_1315)">
<path d="M15.1428 15.4285H12.2856V2.0952C12.2856 1.84261 12.3459 1.60037 12.453 1.42177C12.5602 1.24317 12.7055 1.14282 12.8571 1.14282H14.5714C14.7229 1.14282 14.8683 1.24317 14.9755 1.42177C15.0826 1.60037 15.1428 1.84261 15.1428 2.0952V15.4285Z" fill="white" stroke="white" stroke-linecap="round" stroke-linejoin="round"/>
<path d="M9.42868 15.4286H6.57153V4.95238C6.57153 4.69979 6.63174 4.45754 6.7389 4.27895C6.84606 4.10034 6.99141 4 7.14296 4H8.85725C9.0088 4 9.15415 4.10034 9.2613 4.27895C9.36847 4.45754 9.42868 4.69979 9.42868 4.95238V15.4286Z" fill="white" stroke="white" stroke-linecap="round" stroke-linejoin="round"/>
<path d="M3.71432 15.4285H0.857178V7.80944C0.857178 7.55685 0.917382 7.3146 1.02455 7.13601C1.13171 6.9574 1.27705 6.85706 1.42861 6.85706H3.14289C3.29445 6.85706 3.4398 6.9574 3.54695 7.13601C3.65411 7.3146 3.71432 7.55685 3.71432 7.80944V15.4285Z" fill="white" stroke="white" stroke-linecap="round" stroke-linejoin="round"/>
</g>
<defs>
<clipPath id="clip0_17_1315">
<rect width="16" height="16" fill="white"/>
</clipPath>
</defs>
</svg>
