<svg width="80" height="78" viewBox="0 0 80 78" fill="none" xmlns="http://www.w3.org/2000/svg">
<path d="M70.5748 40.4198L70.5772 40.4218C71.1472 40.887 71.5737 41.5002 71.8095 42.1919C72.0452 42.8835 72.0809 43.6264 71.9126 44.3368L64.8023 74.2384L64.8023 74.2384L64.8009 74.2443C64.6855 74.757 64.464 75.2407 64.15 75.665C63.8361 76.0893 63.4365 76.4449 62.9763 76.7091L62.9755 76.7096C62.0372 77.2508 60.9198 77.4018 59.8688 77.129C46.8735 73.572 33.1473 73.5723 20.1521 77.1299L20.1521 77.1298L20.1463 77.1315C19.8105 77.2278 19.4626 77.2771 19.1128 77.2778C18.3871 77.2767 17.6756 77.0813 17.0536 76.7126L17.0512 76.7112C16.5927 76.4429 16.1943 76.0854 15.88 75.6606C15.5657 75.2358 15.342 74.7526 15.2221 74.2402L15.2218 74.2389L8.13931 44.3369L8.13901 44.3356C7.96878 43.6253 8.0026 42.882 8.23673 42.1897C8.47086 41.4973 8.89618 40.8828 9.46526 40.4162C10.0344 39.9496 10.7245 39.6495 11.4578 39.5505C12.191 39.4515 12.9375 39.5576 13.6126 39.8566L13.6136 39.857L27.7229 46.0693L28.1386 46.2524L28.3606 45.8561L36.5559 31.227C36.5563 31.2263 36.5567 31.2257 36.5571 31.225C36.9047 30.6197 37.4083 30.1158 38.0171 29.7648C38.6268 29.4135 39.3199 29.2281 40.0259 29.2281C40.732 29.2281 41.4251 29.4135 42.0347 29.7648C42.6436 30.1158 43.1471 30.6197 43.4947 31.2249C43.4951 31.2256 43.4955 31.2263 43.496 31.227L51.6913 45.8561L51.9133 46.2524L52.329 46.0693L66.4383 39.857L66.4398 39.8563C67.1131 39.5571 67.858 39.4512 68.5895 39.551C69.321 39.6507 70.0089 39.952 70.5748 40.4198Z" fill="#FFCA28" stroke="#FFCA28"/>
<path d="M48.809 9.28354C48.809 14.1346 44.8765 18.0671 40.0255 18.0671C35.1745 18.0671 31.2419 14.1346 31.2419 9.28354C31.2419 4.43253 35.1745 0.5 40.0255 0.5C44.8765 0.5 48.809 4.43253 48.809 9.28354Z" fill="#FFCA28" stroke="#FFCA28"/>
<path d="M46.4871 41.776C46.4871 45.3452 43.5936 48.2387 40.0244 48.2387C36.4552 48.2387 33.5618 45.3452 33.5618 41.776C33.5618 38.2068 36.4552 35.3134 40.0244 35.3134C43.5936 35.3134 46.4871 38.2068 46.4871 41.776Z" fill="white" stroke="#FFCA28"/>
<path d="M78.9797 24.3692C78.9797 27.2976 76.6058 29.6714 73.6775 29.6714C70.7491 29.6714 68.3752 27.2976 68.3752 24.3692C68.3752 21.4409 70.7491 19.067 73.6775 19.067C76.6058 19.067 78.9797 21.4409 78.9797 24.3692Z" fill="#FFCA28" stroke="#FFCA28"/>
<path d="M11.6738 24.3692C11.6738 27.2976 9.29988 29.6714 6.37155 29.6714C3.44322 29.6714 1.06934 27.2976 1.06934 24.3692C1.06934 21.4409 3.44322 19.067 6.37155 19.067C9.29988 19.067 11.6738 21.4409 11.6738 24.3692Z" fill="#FFCA28" stroke="#FFCA28"/>
<path d="M25.5986 45.2572C25.5986 46.9037 24.2639 48.2385 22.6173 48.2385C20.9708 48.2385 19.636 46.9037 19.636 45.2572C19.636 43.6107 20.9708 42.2759 22.6173 42.2759C24.2639 42.2759 25.5986 43.6107 25.5986 45.2572Z" fill="white" stroke="#FFCA28"/>
<path d="M60.4131 45.2572C60.4131 46.9037 59.0783 48.2385 57.4318 48.2385C55.7852 48.2385 54.4504 46.9037 54.4504 45.2572C54.4504 43.6107 55.7852 42.2759 57.4318 42.2759C59.0783 42.2759 60.4131 43.6107 60.4131 45.2572Z" fill="white" stroke="#FFCA28"/>
</svg>
