<svg width="57" height="56" viewBox="0 0 57 56" fill="none" xmlns="http://www.w3.org/2000/svg">
<rect x="1.29126" y="0.944336" width="54.5556" height="54.5555" rx="27.2778" fill="#FFCA28" stroke="#FFCA28"/>
<mask id="path-2-outside-1_17_1423" maskUnits="userSpaceOnUse" x="23.2356" y="17.3333" width="9" height="20" fill="black">
<rect fill="white" x="23.2356" y="17.3333" width="9" height="20"/>
<path d="M25.2333 21.9333V18.8373H31.0173V36.3333H27.5613V21.9333H25.2333Z"/>
</mask>
<path d="M25.2333 21.9333V18.8373H31.0173V36.3333H27.5613V21.9333H25.2333Z" fill="black"/>
<path d="M25.2333 21.9333H24.2333V22.9333H25.2333V21.9333ZM25.2333 18.8373V17.8373H24.2333V18.8373H25.2333ZM31.0173 18.8373H32.0173V17.8373H31.0173V18.8373ZM31.0173 36.3333V37.3333H32.0173V36.3333H31.0173ZM27.5613 36.3333H26.5613V37.3333H27.5613V36.3333ZM27.5613 21.9333H28.5613V20.9333H27.5613V21.9333ZM26.2333 21.9333V18.8373H24.2333V21.9333H26.2333ZM25.2333 19.8373H31.0173V17.8373H25.2333V19.8373ZM30.0173 18.8373V36.3333H32.0173V18.8373H30.0173ZM31.0173 35.3333H27.5613V37.3333H31.0173V35.3333ZM28.5613 36.3333V21.9333H26.5613V36.3333H28.5613ZM27.5613 20.9333H25.2333V22.9333H27.5613V20.9333Z" fill="#FFCA28" mask="url(#path-2-outside-1_17_1423)"/>
</svg>
