<svg width="30" height="30" viewBox="0 0 30 30" fill="none" xmlns="http://www.w3.org/2000/svg">
<g clip-path="url(#clip0_17_1430)">
<path d="M15.0001 28.9286C22.6927 28.9286 28.9287 22.6926 28.9287 15C28.9287 7.30745 22.6927 1.07141 15.0001 1.07141C7.30757 1.07141 1.07153 7.30745 1.07153 15C1.07153 22.6926 7.30757 28.9286 15.0001 28.9286Z" fill="#FF9040" stroke="#FF9040" stroke-width="2" stroke-linecap="round" stroke-linejoin="round"/>
<path d="M18.6469 11.1908C18.5215 10.8359 18.3279 10.5132 18.082 10.2384C17.5588 9.65385 16.7985 9.28601 15.9523 9.28601H13.7408C12.3323 9.28601 11.1904 10.4279 11.1904 11.8364C11.1904 13.0349 12.025 14.0717 13.1958 14.3279L16.5629 15.0644C17.8746 15.3513 18.8095 16.5137 18.8095 17.8564C18.8095 19.4343 17.5303 20.7146 15.9523 20.7146H14.0476C12.8036 20.7146 11.7452 19.9195 11.353 18.8098" fill="#FF9040"/>
<path d="M18.6469 11.1908C18.5215 10.8359 18.3279 10.5132 18.082 10.2384C17.5588 9.65385 16.7985 9.28601 15.9523 9.28601H13.7408C12.3323 9.28601 11.1904 10.4279 11.1904 11.8364C11.1904 13.0349 12.025 14.0717 13.1958 14.3279L16.5629 15.0644C17.8746 15.3513 18.8095 16.5137 18.8095 17.8564C18.8095 19.4343 17.5303 20.7146 15.9523 20.7146H14.0476C12.8036 20.7146 11.7452 19.9195 11.353 18.8098" stroke="white" stroke-width="2" stroke-linecap="round" stroke-linejoin="round"/>
<path d="M15 9.28572V6.42859V9.28572Z" fill="#FF9040"/>
<path d="M15 9.28572V6.42859" stroke="white" stroke-width="2" stroke-linecap="round" stroke-linejoin="round"/>
<path d="M15 23.5709V20.7139V23.5709Z" fill="#FF9040"/>
<path d="M15 23.5709V20.7139" stroke="white" stroke-width="2" stroke-linecap="round" stroke-linejoin="round"/>
</g>
<defs>
<clipPath id="clip0_17_1430">
<rect width="30" height="30" fill="white"/>
</clipPath>
</defs>
</svg>
