<svg width="30" height="30" viewBox="0 0 30 30" fill="none" xmlns="http://www.w3.org/2000/svg">
<path d="M15 28.9286C22.5 28.9286 27.8571 26.2755 27.8571 20.3703C27.8571 13.9516 24.6428 9.67245 18.2143 6.46312L20.7428 3.21097C20.8713 2.9976 20.941 2.75411 20.9448 2.50518C20.9486 2.25624 20.8865 2.01073 20.7646 1.79351C20.6428 1.57629 20.4656 1.39509 20.2511 1.26828C20.0365 1.14147 19.7922 1.07355 19.5428 1.07141H10.4571C10.2078 1.07355 9.96344 1.14147 9.74887 1.26828C9.53429 1.39509 9.35712 1.57629 9.23529 1.79351C9.11345 2.01073 9.05131 2.25624 9.05514 2.50518C9.05898 2.75411 9.12864 2.9976 9.25711 3.21097L11.7857 6.4845C5.35711 9.71525 2.14282 13.9944 2.14282 20.4131C2.14282 26.2755 7.49996 28.9286 15 28.9286Z" fill="#FF9040" stroke="#FF9040" stroke-width="2" stroke-linecap="round" stroke-linejoin="round"/>
<path d="M17.9632 14.5836C17.8613 14.2953 17.704 14.0331 17.5042 13.8098C17.0791 13.3349 16.4614 13.036 15.7739 13.036H13.977C12.8325 13.036 11.9048 13.9638 11.9048 15.1082C11.9048 16.082 12.5828 16.9244 13.5342 17.1325L16.2699 17.731C17.3357 17.9641 18.0953 18.9085 18.0953 19.9995C18.0953 21.2816 17.056 22.3219 15.7739 22.3219H14.2262C13.2155 22.3219 12.3556 21.6758 12.0369 20.7741" fill="#FF9040"/>
<path d="M17.9632 14.5836C17.8613 14.2953 17.704 14.0331 17.5042 13.8098C17.0791 13.3349 16.4614 13.036 15.7739 13.036H13.977C12.8325 13.036 11.9048 13.9638 11.9048 15.1082C11.9048 16.082 12.5828 16.9244 13.5342 17.1325L16.2699 17.731C17.3357 17.9641 18.0953 18.9085 18.0953 19.9995C18.0953 21.2816 17.056 22.3219 15.7739 22.3219H14.2262C13.2155 22.3219 12.3556 21.6758 12.0369 20.7741" stroke="white" stroke-width="2" stroke-linecap="round" stroke-linejoin="round"/>
<path d="M15 13.0357V10.7142V13.0357Z" fill="#FF9040"/>
<path d="M15 13.0357V10.7142" stroke="white" stroke-width="2" stroke-linecap="round" stroke-linejoin="round"/>
<path d="M15 24.6431V22.3215V24.6431Z" fill="#FF9040"/>
<path d="M15 24.6431V22.3215" stroke="white" stroke-width="2" stroke-linecap="round" stroke-linejoin="round"/>
</svg>
