<svg width="16" height="16" viewBox="0 0 16 16" fill="none" xmlns="http://www.w3.org/2000/svg">
<path d="M5.71432 6.2857C7.29228 6.2857 8.57146 5.00651 8.57146 3.42855C8.57146 1.8506 7.29228 0.571411 5.71432 0.571411C4.13637 0.571411 2.85718 1.8506 2.85718 3.42855C2.85718 5.00651 4.13637 6.2857 5.71432 6.2857Z" stroke="black" stroke-linecap="round" stroke-linejoin="round"/>
<path d="M7.42868 14.2857H0.571533V13.6661C0.580631 12.7951 0.810364 11.9404 1.23927 11.1822C1.66818 10.424 2.28228 9.78684 3.02418 9.33026C3.7661 8.8737 4.61164 8.61263 5.4818 8.57144C6.35197 8.53024 7.21838 8.71028 8.0001 9.0947" stroke="black" stroke-linecap="round" stroke-linejoin="round"/>
<path d="M12 8.57141V15.4286" stroke="black" stroke-linecap="round" stroke-linejoin="round"/>
<path d="M8.57153 12H15.4287" stroke="black" stroke-linecap="round" stroke-linejoin="round"/>
</svg>
