<svg width="16" height="16" viewBox="0 0 16 16" fill="none" xmlns="http://www.w3.org/2000/svg">
<g clip-path="url(#clip0_17_1343)">
<path d="M5.97708 2.57141L6.46851 1.30284C6.55139 1.08806 6.69721 0.903309 6.88686 0.772796C7.07651 0.642284 7.30115 0.572091 7.53137 0.571411H8.46851C8.69873 0.572091 8.92338 0.642284 9.11303 0.772796C9.30268 0.903309 9.44849 1.08806 9.53137 1.30284L10.0228 2.57141L11.6913 3.53141L13.0399 3.3257C13.2645 3.29522 13.493 3.33218 13.6966 3.43189C13.9 3.53161 14.0693 3.68956 14.1828 3.8857L14.6399 4.6857C14.757 4.88495 14.8111 5.11505 14.7948 5.34561C14.7784 5.57617 14.6926 5.79636 14.5485 5.97713L13.7142 7.03998V8.95998L14.5713 10.0228C14.7154 10.2036 14.8013 10.4238 14.8176 10.6544C14.834 10.8849 14.7799 11.115 14.6628 11.3143L14.2056 12.1143C14.0921 12.3104 13.9229 12.4683 13.7194 12.5681C13.5159 12.6678 13.2873 12.7048 13.0628 12.6743L11.7142 12.4686L10.0457 13.4286L9.55423 14.6971C9.47135 14.9119 9.32554 15.0967 9.13588 15.2272C8.94624 15.3577 8.72159 15.4279 8.49137 15.4286H7.53137C7.30115 15.4279 7.07651 15.3577 6.88686 15.2272C6.69721 15.0967 6.55139 14.9119 6.46851 14.6971L5.97708 13.4286L4.30851 12.4686L2.95994 12.6743C2.73539 12.7048 2.50685 12.6678 2.30335 12.5681C2.09986 12.4683 1.93061 12.3104 1.81709 12.1143L1.35994 11.3143C1.2428 11.115 1.18883 10.8849 1.20515 10.6544C1.22147 10.4238 1.30733 10.2036 1.45137 10.0228L2.28566 8.95998V7.03998L1.42851 5.97713C1.28447 5.79636 1.19862 5.57617 1.1823 5.34561C1.16598 5.11505 1.21994 4.88495 1.33709 4.6857L1.79423 3.8857C1.90775 3.68956 2.07701 3.53161 2.28049 3.43189C2.48399 3.33218 2.71254 3.29522 2.93709 3.3257L4.28566 3.53141L5.97708 2.57141ZM5.71423 7.99998C5.71423 8.45205 5.84828 8.89397 6.09944 9.26986C6.3506 9.64574 6.70758 9.9387 7.12523 10.1117C7.5429 10.2847 8.00248 10.33 8.44586 10.2418C8.88924 10.1536 9.29652 9.93589 9.61619 9.61622C9.93585 9.29657 10.1535 8.88929 10.2417 8.4459C10.3299 8.00252 10.2847 7.54294 10.1117 7.12527C9.93867 6.70762 9.6457 6.35063 9.26982 6.09948C8.89393 5.84833 8.45201 5.71427 7.99994 5.71427C7.39374 5.71427 6.81235 5.95508 6.3837 6.38374C5.95505 6.81239 5.71423 7.39378 5.71423 7.99998Z" stroke="black" stroke-linecap="round" stroke-linejoin="round"/>
</g>
<defs>
<clipPath id="clip0_17_1343">
<rect width="16" height="16" fill="white"/>
</clipPath>
</defs>
</svg>
