<svg width="16" height="16" viewBox="0 0 16 16" fill="none" xmlns="http://www.w3.org/2000/svg">
<g clip-path="url(#clip0_17_1281)">
<path d="M9.54417 6.06467C9.48563 5.89906 9.3953 5.74847 9.28052 5.62023C9.03637 5.34745 8.68158 5.17578 8.28669 5.17578H7.25464C6.59732 5.17578 6.06445 5.70864 6.06445 6.36596C6.06445 6.92528 6.4539 7.40913 7.0003 7.52865L8.57162 7.87238C9.18373 8.00628 9.62003 8.54872 9.62003 9.17531C9.62003 9.91169 9.02307 10.5091 8.28669 10.5091H7.3978C6.81725 10.5091 6.32337 10.1381 6.14033 9.62025" stroke="black" stroke-linecap="round" stroke-linejoin="round"/>
<path d="M7.84229 5.176V3.84265" stroke="black" stroke-linecap="round" stroke-linejoin="round"/>
<path d="M7.84229 11.8425V10.5092" stroke="black" stroke-linecap="round" stroke-linejoin="round"/>
<path d="M2.28394 15.4268V12.5697H5.14108" stroke="black" stroke-linecap="round" stroke-linejoin="round"/>
<path d="M15.3009 6.63306C16.0117 10.4136 13.6982 14.1616 9.92106 15.1736C7.03014 15.9482 4.08044 14.9062 2.28394 12.7474" stroke="black" stroke-linecap="round" stroke-linejoin="round"/>
<path d="M0.699516 9.36692C-0.0113883 5.58642 2.30212 1.83846 6.07929 0.826377C8.97001 0.0518108 11.9195 1.09361 13.7161 3.25215" stroke="black" stroke-linecap="round" stroke-linejoin="round"/>
<path d="M13.7161 0.573364V3.43051H10.8589" stroke="black" stroke-linecap="round" stroke-linejoin="round"/>
</g>
<defs>
<clipPath id="clip0_17_1281">
<rect width="16" height="16" fill="white"/>
</clipPath>
</defs>
</svg>
