<svg width="35" height="35" viewBox="0 0 35 35" fill="none" xmlns="http://www.w3.org/2000/svg">
<rect x="0.5" y="0.5" width="33.6154" height="33.6154" rx="16.8077" fill="#ADEF44" stroke="#ADEF44"/>
<mask id="path-2-outside-1_17_1384" maskUnits="userSpaceOnUse" x="12" y="8.38464" width="12" height="17" fill="black">
<rect fill="white" x="12" y="8.38464" width="12" height="17"/>
<path d="M13.3111 13.7186C13.3711 12.5186 13.7911 11.5946 14.5711 10.9466C15.3631 10.2866 16.4011 9.95664 17.6851 9.95664C18.5611 9.95664 19.3111 10.1126 19.9351 10.4246C20.5591 10.7246 21.0271 11.1386 21.3391 11.6666C21.6631 12.1826 21.8251 12.7706 21.8251 13.4306C21.8251 14.1866 21.6271 14.8286 21.2311 15.3566C20.8471 15.8726 20.3851 16.2206 19.8451 16.4006V16.4726C20.5411 16.6886 21.0811 17.0726 21.4651 17.6246C21.8611 18.1766 22.0591 18.8846 22.0591 19.7486C22.0591 20.4686 21.8911 21.1106 21.5551 21.6746C21.2311 22.2386 20.7451 22.6826 20.0971 23.0066C19.4611 23.3186 18.6931 23.4746 17.7931 23.4746C16.4371 23.4746 15.3331 23.1326 14.4811 22.4486C13.6291 21.7646 13.1791 20.7566 13.1311 19.4246H15.5791C15.6031 20.0126 15.8011 20.4866 16.1731 20.8466C16.5571 21.1946 17.0791 21.3686 17.7391 21.3686C18.3511 21.3686 18.8191 21.2006 19.1431 20.8646C19.4791 20.5166 19.6471 20.0726 19.6471 19.5326C19.6471 18.8126 19.4191 18.2966 18.9631 17.9846C18.5071 17.6726 17.7991 17.5166 16.8391 17.5166H16.3171V15.4466H16.8391C18.5431 15.4466 19.3951 14.8766 19.3951 13.7366C19.3951 13.2206 19.2391 12.8186 18.9271 12.5306C18.6271 12.2426 18.1891 12.0986 17.6131 12.0986C17.0491 12.0986 16.6111 12.2546 16.2991 12.5666C15.9991 12.8666 15.8251 13.2506 15.7771 13.7186H13.3111Z"/>
</mask>
<path d="M13.3111 13.7186C13.3711 12.5186 13.7911 11.5946 14.5711 10.9466C15.3631 10.2866 16.4011 9.95664 17.6851 9.95664C18.5611 9.95664 19.3111 10.1126 19.9351 10.4246C20.5591 10.7246 21.0271 11.1386 21.3391 11.6666C21.6631 12.1826 21.8251 12.7706 21.8251 13.4306C21.8251 14.1866 21.6271 14.8286 21.2311 15.3566C20.8471 15.8726 20.3851 16.2206 19.8451 16.4006V16.4726C20.5411 16.6886 21.0811 17.0726 21.4651 17.6246C21.8611 18.1766 22.0591 18.8846 22.0591 19.7486C22.0591 20.4686 21.8911 21.1106 21.5551 21.6746C21.2311 22.2386 20.7451 22.6826 20.0971 23.0066C19.4611 23.3186 18.6931 23.4746 17.7931 23.4746C16.4371 23.4746 15.3331 23.1326 14.4811 22.4486C13.6291 21.7646 13.1791 20.7566 13.1311 19.4246H15.5791C15.6031 20.0126 15.8011 20.4866 16.1731 20.8466C16.5571 21.1946 17.0791 21.3686 17.7391 21.3686C18.3511 21.3686 18.8191 21.2006 19.1431 20.8646C19.4791 20.5166 19.6471 20.0726 19.6471 19.5326C19.6471 18.8126 19.4191 18.2966 18.9631 17.9846C18.5071 17.6726 17.7991 17.5166 16.8391 17.5166H16.3171V15.4466H16.8391C18.5431 15.4466 19.3951 14.8766 19.3951 13.7366C19.3951 13.2206 19.2391 12.8186 18.9271 12.5306C18.6271 12.2426 18.1891 12.0986 17.6131 12.0986C17.0491 12.0986 16.6111 12.2546 16.2991 12.5666C15.9991 12.8666 15.8251 13.2506 15.7771 13.7186H13.3111Z" fill="black"/>
<path d="M13.3111 13.7186L12.3123 13.6687L12.2598 14.7186H13.3111V13.7186ZM14.5711 10.9466L15.2101 11.7158L15.2113 11.7149L14.5711 10.9466ZM19.9351 10.4246L19.4879 11.3191L19.4948 11.3225L19.5018 11.3259L19.9351 10.4246ZM21.3391 11.6666L20.4781 12.1754L20.485 12.187L20.4922 12.1984L21.3391 11.6666ZM21.2311 15.3566L20.4311 14.7566L20.4288 14.7596L21.2311 15.3566ZM19.8451 16.4006L19.5288 15.452L18.8451 15.6799V16.4006H19.8451ZM19.8451 16.4726H18.8451V17.2093L19.5487 17.4277L19.8451 16.4726ZM21.4651 17.6246L20.6442 18.1957L20.6483 18.2017L20.6525 18.2076L21.4651 17.6246ZM21.5551 21.6746L20.696 21.1628L20.6919 21.1696L20.688 21.1765L21.5551 21.6746ZM20.0971 23.0066L20.5375 23.9045L20.5443 23.9011L20.0971 23.0066ZM14.4811 22.4486L13.855 23.2284H13.855L14.4811 22.4486ZM13.1311 19.4246V18.4246H12.0944L12.1317 19.4607L13.1311 19.4246ZM15.5791 19.4246L16.5782 19.3839L16.5391 18.4246H15.5791V19.4246ZM16.1731 20.8466L15.4776 21.5652L15.4894 21.5766L15.5016 21.5876L16.1731 20.8466ZM19.1431 20.8646L18.4237 20.17L18.4232 20.1705L19.1431 20.8646ZM16.3171 17.5166H15.3171V18.5166H16.3171V17.5166ZM16.3171 15.4466V14.4466H15.3171V15.4466H16.3171ZM18.9271 12.5306L18.2345 13.252L18.2416 13.2588L18.2488 13.2654L18.9271 12.5306ZM16.2991 12.5666L17.0062 13.2738L17.0062 13.2737L16.2991 12.5666ZM15.7771 13.7186V14.7186H16.6798L16.7719 13.8207L15.7771 13.7186ZM14.3098 13.7686C14.3587 12.7918 14.6852 12.1519 15.2101 11.7158L13.9321 10.1775C12.8969 11.0374 12.3835 12.2455 12.3123 13.6687L14.3098 13.7686ZM15.2113 11.7149C15.7828 11.2386 16.5759 10.9566 17.6851 10.9566V8.95664C16.2263 8.95664 14.9433 9.33472 13.9309 10.1784L15.2113 11.7149ZM17.6851 10.9566C18.4445 10.9566 19.0336 11.092 19.4879 11.3191L20.3823 9.53022C19.5885 9.13333 18.6776 8.95664 17.6851 8.95664V10.9566ZM19.5018 11.3259C19.9713 11.5516 20.2794 11.839 20.4781 12.1754L22.2 11.1579C21.7748 10.4383 21.1468 9.89765 20.3684 9.52339L19.5018 11.3259ZM20.4922 12.1984C20.7078 12.5418 20.8251 12.9425 20.8251 13.4306H22.8251C22.8251 12.5988 22.6183 11.8234 22.186 11.1349L20.4922 12.1984ZM20.8251 13.4306C20.8251 14.0031 20.6788 14.4263 20.4311 14.7566L22.0311 15.9566C22.5753 15.231 22.8251 14.3702 22.8251 13.4306H20.8251ZM20.4288 14.7596C20.1505 15.1336 19.85 15.3449 19.5288 15.452L20.1613 17.3493C20.9201 17.0964 21.5436 16.6117 22.0333 15.9537L20.4288 14.7596ZM18.8451 16.4006V16.4726H20.8451V16.4006H18.8451ZM19.5487 17.4277C20.0509 17.5836 20.3983 17.8422 20.6442 18.1957L22.286 17.0536C21.7639 16.3031 21.0312 15.7937 20.1415 15.5176L19.5487 17.4277ZM20.6525 18.2076C20.8971 18.5485 21.0591 19.0367 21.0591 19.7486H23.0591C23.0591 18.7326 22.825 17.8048 22.2776 17.0417L20.6525 18.2076ZM21.0591 19.7486C21.0591 20.3064 20.931 20.7684 20.696 21.1628L22.4142 22.1864C22.8512 21.4529 23.0591 20.6309 23.0591 19.7486H21.0591ZM20.688 21.1765C20.4729 21.5509 20.1427 21.8658 19.6499 22.1122L20.5443 23.9011C21.3474 23.4995 21.9893 22.9264 22.4222 22.1728L20.688 21.1765ZM19.6566 22.1089C19.1897 22.3379 18.5805 22.4746 17.7931 22.4746V24.4746C18.8057 24.4746 19.7325 24.2993 20.5375 23.9044L19.6566 22.1089ZM17.7931 22.4746C16.6084 22.4746 15.7421 22.1787 15.1071 21.6688L13.855 23.2284C14.924 24.0866 16.2657 24.4746 17.7931 24.4746V22.4746ZM15.1071 21.6688C14.5309 21.2063 14.1705 20.4999 14.1304 19.3886L12.1317 19.4607C12.1877 21.0134 12.7272 22.323 13.855 23.2284L15.1071 21.6688ZM13.1311 20.4246H15.5791V18.4246H13.1311V20.4246ZM14.5799 19.4654C14.6128 20.2721 14.8956 21.0019 15.4776 21.5652L16.8685 20.128C16.7066 19.9714 16.5933 19.7532 16.5782 19.3839L14.5799 19.4654ZM15.5016 21.5876C16.1156 22.1441 16.9011 22.3686 17.7391 22.3686V20.3686C17.2571 20.3686 16.9985 20.2452 16.8446 20.1057L15.5016 21.5876ZM17.7391 22.3686C18.5343 22.3686 19.2969 22.1458 19.8629 21.5588L18.4232 20.1705C18.3413 20.2555 18.1679 20.3686 17.7391 20.3686V22.3686ZM19.8625 21.5592C20.4 21.0025 20.6471 20.299 20.6471 19.5326H18.6471C18.6471 19.8463 18.5581 20.0308 18.4237 20.17L19.8625 21.5592ZM20.6471 19.5326C20.6471 18.5938 20.3367 17.7128 19.5278 17.1593L18.3984 18.81C18.5015 18.8805 18.6471 19.0315 18.6471 19.5326H20.6471ZM19.5278 17.1593C18.8226 16.6769 17.8691 16.5166 16.8391 16.5166V18.5166C17.729 18.5166 18.1915 18.6684 18.3984 18.81L19.5278 17.1593ZM16.8391 16.5166H16.3171V18.5166H16.8391V16.5166ZM17.3171 17.5166V15.4466H15.3171V17.5166H17.3171ZM16.3171 16.4466H16.8391V14.4466H16.3171V16.4466ZM16.8391 16.4466C17.771 16.4466 18.6452 16.2965 19.3121 15.8503C20.0502 15.3565 20.3951 14.5964 20.3951 13.7366H18.3951C18.3951 14.0168 18.3139 14.1118 18.2 14.188C18.015 14.3118 17.6111 14.4466 16.8391 14.4466V16.4466ZM20.3951 13.7366C20.3951 13.0064 20.1657 12.3131 19.6054 11.7958L18.2488 13.2654C18.3125 13.3242 18.3951 13.4349 18.3951 13.7366H20.3951ZM19.6196 11.8093C19.0716 11.2832 18.3466 11.0986 17.6131 11.0986V13.0986C18.0316 13.0986 18.1825 13.2021 18.2345 13.252L19.6196 11.8093ZM17.6131 11.0986C16.8612 11.0986 16.1399 11.3116 15.592 11.8595L17.0062 13.2737C17.0822 13.1977 17.2369 13.0986 17.6131 13.0986V11.0986ZM15.592 11.8595C15.1115 12.34 14.851 12.9463 14.7823 13.6166L16.7719 13.8207C16.7991 13.5549 16.8867 13.3932 17.0062 13.2738L15.592 11.8595ZM15.7771 12.7186H13.3111V14.7186H15.7771V12.7186Z" fill="#ADEF44" mask="url(#path-2-outside-1_17_1384)"/>
</svg>
