<svg width="28" height="28" viewBox="0 0 28 28" fill="none" xmlns="http://www.w3.org/2000/svg">
<path d="M14 27C21 27 26 24.5238 26 19.0123C26 13.0215 23 9.02764 17 6.03226L19.36 2.99692C19.4799 2.79778 19.5449 2.57052 19.5485 2.33818C19.5521 2.10584 19.4941 1.8767 19.3804 1.67396C19.2667 1.47122 19.1013 1.3021 18.901 1.18374C18.7008 1.06539 18.4727 1.002 18.24 1H9.76C9.52728 1.002 9.29924 1.06539 9.09898 1.18374C8.8987 1.3021 8.73334 1.47122 8.61964 1.67396C8.50592 1.8767 8.44792 2.10584 8.4515 2.33818C8.45508 2.57052 8.5201 2.79778 8.64 2.99692L11 6.05222C5 9.06758 2 13.0614 2 19.0522C2 24.5238 7 27 14 27Z" fill="#72BA00" stroke="#72BA00" stroke-width="2" stroke-linecap="round" stroke-linejoin="round"/>
<path d="M16.7656 13.6114C16.6705 13.3423 16.5237 13.0976 16.3372 12.8892C15.9405 12.446 15.3639 12.167 14.7222 12.167H13.0451C11.977 12.167 11.1111 13.0329 11.1111 14.101C11.1111 15.0099 11.7439 15.7962 12.6318 15.9904L15.1852 16.549C16.1799 16.7666 16.8889 17.648 16.8889 18.6662C16.8889 19.8629 15.9188 20.8338 14.7222 20.8338H13.2778C12.3344 20.8338 11.5318 20.2308 11.2344 19.3893" fill="#72BA00"/>
<path d="M16.7656 13.6114C16.6705 13.3423 16.5237 13.0976 16.3372 12.8892C15.9405 12.446 15.3639 12.167 14.7222 12.167H13.0451C11.977 12.167 11.1111 13.0329 11.1111 14.101C11.1111 15.0099 11.7439 15.7962 12.6318 15.9904L15.1852 16.549C16.1799 16.7666 16.8889 17.648 16.8889 18.6662C16.8889 19.8629 15.9188 20.8338 14.7222 20.8338H13.2778C12.3344 20.8338 11.5318 20.2308 11.2344 19.3893" stroke="white" stroke-width="2" stroke-linecap="round" stroke-linejoin="round"/>
<path d="M14 12.1667V10V12.1667Z" fill="#72BA00"/>
<path d="M14 12.1667V10" stroke="white" stroke-width="2" stroke-linecap="round" stroke-linejoin="round"/>
<path d="M14 23.0002V20.8334V23.0002Z" fill="#72BA00"/>
<path d="M14 23.0002V20.8334" stroke="white" stroke-width="2" stroke-linecap="round" stroke-linejoin="round"/>
</svg>
