<svg width="28" height="28" viewBox="0 0 28 28" fill="none" xmlns="http://www.w3.org/2000/svg">
<g clip-path="url(#clip0_17_1391)">
<path d="M14 27C21.1798 27 27 21.1798 27 14C27 6.8203 21.1798 1 14 1C6.8203 1 1 6.8203 1 14C1 21.1798 6.8203 27 14 27Z" fill="#72BA00" stroke="#72BA00" stroke-width="2" stroke-linecap="round" stroke-linejoin="round"/>
<path d="M17.4037 10.4448C17.2866 10.1136 17.106 9.81235 16.8764 9.55587C16.3881 9.01031 15.6786 8.66699 14.8888 8.66699H12.8247C11.5101 8.66699 10.4443 9.73271 10.4443 11.0473C10.4443 12.166 11.2232 13.1337 12.316 13.3727L15.4586 14.0602C16.6829 14.328 17.5554 15.4128 17.5554 16.666C17.5554 18.1388 16.3615 19.3337 14.8888 19.3337H13.111C11.9499 19.3337 10.9622 18.5916 10.5961 17.5559" fill="#72BA00"/>
<path d="M17.4037 10.4448C17.2866 10.1136 17.106 9.81235 16.8764 9.55587C16.3881 9.01031 15.6786 8.66699 14.8888 8.66699H12.8247C11.5101 8.66699 10.4443 9.73271 10.4443 11.0473C10.4443 12.166 11.2232 13.1337 12.316 13.3727L15.4586 14.0602C16.6829 14.328 17.5554 15.4128 17.5554 16.666C17.5554 18.1388 16.3615 19.3337 14.8888 19.3337H13.111C11.9499 19.3337 10.9622 18.5916 10.5961 17.5559" stroke="white" stroke-width="2" stroke-linecap="round" stroke-linejoin="round"/>
<path d="M14 8.66666V6V8.66666Z" fill="#72BA00"/>
<path d="M14 8.66666V6" stroke="white" stroke-width="2" stroke-linecap="round" stroke-linejoin="round"/>
<path d="M14 21.9996V19.333V21.9996Z" fill="#72BA00"/>
<path d="M14 21.9996V19.333" stroke="white" stroke-width="2" stroke-linecap="round" stroke-linejoin="round"/>
</g>
<defs>
<clipPath id="clip0_17_1391">
<rect width="28" height="28" fill="white"/>
</clipPath>
</defs>
</svg>
