<svg width="47" height="49" viewBox="0 0 47 49" fill="none" xmlns="http://www.w3.org/2000/svg">
<path d="M41.0012 26.6411L41.0036 26.6431C41.3085 26.892 41.5366 27.22 41.6625 27.5894C41.7884 27.9589 41.8074 28.3556 41.7176 28.7351L37.5415 46.297L37.5415 46.2969L37.5402 46.3028C37.4787 46.5759 37.3607 46.8336 37.1933 47.0598C37.0259 47.286 36.8128 47.4758 36.5671 47.6169L36.5663 47.6174C36.0625 47.9079 35.4624 47.9892 34.8977 47.843C27.23 45.7445 19.1311 45.7448 11.4635 47.8439L11.4635 47.8439L11.4577 47.8455C11.2789 47.8968 11.0937 47.923 10.9074 47.9235C10.5182 47.9228 10.1367 47.8179 9.80335 47.6203L9.80095 47.6189C9.55563 47.4754 9.34266 47.2842 9.17472 47.0572L8.77279 47.3546L9.17472 47.0572C9.00679 46.8303 8.88734 46.5722 8.82337 46.2987L8.82305 46.2974L4.6633 28.7351L4.66299 28.7338C4.57207 28.3545 4.59013 27.9575 4.71519 27.5877C4.84027 27.2178 5.06758 26.8892 5.37211 26.6395C5.67668 26.3898 6.04624 26.229 6.43914 26.176C6.83205 26.1229 7.232 26.1798 7.59361 26.3399L7.59458 26.3404L15.8813 29.989L16.297 30.1721L16.519 29.7758L21.3314 21.1855C21.3318 21.1849 21.3321 21.1842 21.3325 21.1835C21.5184 20.8602 21.7877 20.5907 22.1136 20.4029C22.4403 20.2146 22.8118 20.1152 23.1904 20.1152C23.569 20.1152 23.9406 20.2146 24.2672 20.4029C24.5931 20.5907 24.8624 20.8602 25.0482 21.1834C25.0487 21.1841 25.0491 21.1848 25.0495 21.1855L29.8618 29.7758L30.0838 30.1721L30.4995 29.989L38.7863 26.3404L38.7878 26.3397C39.1482 26.1795 39.547 26.1228 39.9387 26.1762C40.3304 26.2296 40.6985 26.3909 41.0012 26.6411Z" fill="#ADEF44" stroke="#ADEF44"/>
<circle cx="23.1898" cy="5.45248" r="4.95248" fill="#ADEF44" stroke="#ADEF44"/>
<circle cx="22.9927" cy="27.3152" r="3.58936" fill="white" stroke="#ADEF44"/>
<path d="M45.8635 14.3127C45.8635 15.9186 44.5616 17.2205 42.9557 17.2205C41.3497 17.2205 40.0479 15.9186 40.0479 14.3127C40.0479 12.7068 41.3497 11.4049 42.9557 11.4049C44.5616 11.4049 45.8635 12.7068 45.8635 14.3127Z" fill="#ADEF44" stroke="#ADEF44"/>
<path d="M6.33318 14.3127C6.33318 15.9186 5.03131 17.2205 3.42538 17.2205C1.81945 17.2205 0.517578 15.9186 0.517578 14.3127C0.517578 12.7068 1.81945 11.4049 3.42538 11.4049C5.03131 11.4049 6.33318 12.7068 6.33318 14.3127Z" fill="#ADEF44" stroke="#ADEF44"/>
<circle cx="11.6575" cy="28.1737" r="1.54468" fill="white" stroke="#ADEF44"/>
<circle cx="34.3027" cy="28.1737" r="1.54468" fill="white" stroke="#ADEF44"/>
</svg>
