<svg width="47" height="49" viewBox="0 0 47 49" fill="none" xmlns="http://www.w3.org/2000/svg">
<path d="M8.97272 46.1151C9.05175 46.453 9.19922 46.7714 9.4062 47.0511C9.61318 47.3308 9.87536 47.566 10.1768 47.7425L8.97272 46.1151ZM8.97272 46.1151L4.83963 28.6654M8.97272 46.1151L4.83963 28.6654M4.83963 28.6654C4.72749 28.1975 4.74978 27.7078 4.904 27.2517C5.05822 26.7956 5.33821 26.3913 5.71233 26.0846C6.08645 25.7778 6.53976 25.5808 7.02104 25.5159C7.50231 25.4509 7.99234 25.5205 8.43575 25.7169L4.83963 28.6654ZM41.426 26.4728L41.4284 26.4748C41.7309 26.7218 41.9571 27.0471 42.082 27.4136C42.207 27.7801 42.2259 28.1737 42.1367 28.5502L37.9874 45.9995L37.9874 45.9994L37.9861 46.0053C37.9251 46.2762 37.808 46.5319 37.642 46.7563C37.4759 46.9807 37.2645 47.1689 37.0207 47.3089L37.0199 47.3093C36.5201 47.5976 35.9247 47.6783 35.3644 47.5332C27.7453 45.448 19.6978 45.4483 12.0788 47.5341L12.0788 47.5341L12.073 47.5358C11.8957 47.5866 11.7119 47.6127 11.5271 47.6131C11.141 47.6124 10.7625 47.5084 10.4318 47.3123L10.4294 47.3109C10.186 47.1685 9.97474 46.9789 9.80814 46.7537C9.64154 46.5286 9.52305 46.2725 9.45958 46.0012L9.45926 45.9999L5.32617 28.5502L5.32587 28.5489C5.23567 28.1726 5.25358 27.7788 5.37765 27.4118C5.50174 27.0449 5.72724 26.7189 6.02935 26.4712C6.33151 26.2235 6.69815 26.064 7.08794 26.0114C7.47775 25.9587 7.87453 26.0152 8.23328 26.174L8.23426 26.1745L16.4679 29.7997L16.8836 29.9828L17.1056 29.5865L21.8871 21.0513C21.8875 21.0506 21.8879 21.0499 21.8883 21.0492C22.0727 20.7285 22.3398 20.4612 22.6631 20.2749C22.9872 20.0881 23.3558 19.9895 23.7314 19.9895C24.107 19.9895 24.4757 20.0881 24.7997 20.2749C25.123 20.4612 25.3901 20.7285 25.5745 21.0492C25.5749 21.0499 25.5754 21.0506 25.5758 21.0513L30.3573 29.5865L30.5792 29.9828L30.995 29.7997L39.2286 26.1745L39.2302 26.1738C39.5876 26.0149 39.9833 25.9586 40.3719 26.0116C40.7605 26.0646 41.1257 26.2246 41.426 26.4728Z" fill="#49E89C" stroke="#49E89C"/>
<path d="M28.6485 5.41753C28.6485 8.13341 26.4469 10.3351 23.731 10.3351C21.0151 10.3351 18.8135 8.13341 18.8135 5.41753C18.8135 2.70165 21.0151 0.5 23.731 0.5C26.4469 0.5 28.6485 2.70165 28.6485 5.41753Z" fill="#49E89C" stroke="#49E89C"/>
<circle cx="23.5351" cy="28.2939" r="3.56315" fill="white" stroke="#49E89C"/>
<path d="M46.2553 14.221C46.2553 15.8149 44.9632 17.107 43.3694 17.107C41.7755 17.107 40.4834 15.8149 40.4834 14.221C40.4834 12.6272 41.7755 11.3351 43.3694 11.3351C44.9632 11.3351 46.2553 12.6272 46.2553 14.221Z" fill="#49E89C" stroke="#49E89C"/>
<path d="M6.97797 14.221C6.97797 15.8149 5.68588 17.107 4.09201 17.107C2.49814 17.107 1.20605 15.8149 1.20605 14.221C1.20605 12.6272 2.49814 11.3351 4.09201 11.3351C5.68588 11.3351 6.97797 12.6272 6.97797 14.221Z" fill="#49E89C" stroke="#49E89C"/>
<circle cx="11.6956" cy="27.9931" r="1.53157" fill="white" stroke="#49E89C"/>
<circle cx="34.7725" cy="27.9931" r="1.53157" fill="white" stroke="#49E89C"/>
</svg>
