<svg width="36" height="35" viewBox="0 0 36 35" fill="none" xmlns="http://www.w3.org/2000/svg">
<rect x="0.976318" y="0.884644" width="33.6154" height="33.6154" rx="16.8077" fill="#49E89C" stroke="#49E89C"/>
<mask id="path-2-outside-1_17_1462" maskUnits="userSpaceOnUse" x="12.4763" y="8.76929" width="12" height="16" fill="black">
<rect fill="white" x="12.4763" y="8.76929" width="12" height="16"/>
<path d="M14.7631 20.9253C15.9151 19.9653 16.8331 19.1673 17.5171 18.5313C18.2011 17.8833 18.7711 17.2113 19.2271 16.5153C19.6831 15.8193 19.9111 15.1353 19.9111 14.4633C19.9111 13.8513 19.7671 13.3713 19.4791 13.0233C19.1911 12.6753 18.7471 12.5013 18.1471 12.5013C17.5471 12.5013 17.0851 12.7053 16.7611 13.1133C16.4371 13.5093 16.2691 14.0553 16.2571 14.7513H13.8091C13.8571 13.3113 14.2831 12.2193 15.0871 11.4753C15.9031 10.7313 16.9351 10.3593 18.1831 10.3593C19.5511 10.3593 20.6011 10.7253 21.3331 11.4573C22.0651 12.1773 22.4311 13.1313 22.4311 14.3193C22.4311 15.2553 22.1791 16.1493 21.6751 17.0013C21.1711 17.8533 20.5951 18.5973 19.9471 19.2333C19.2991 19.8573 18.4531 20.6133 17.4091 21.5013H22.7191V23.5893H13.8271V21.7173L14.7631 20.9253Z"/>
</mask>
<path d="M14.7631 20.9253C15.9151 19.9653 16.8331 19.1673 17.5171 18.5313C18.2011 17.8833 18.7711 17.2113 19.2271 16.5153C19.6831 15.8193 19.9111 15.1353 19.9111 14.4633C19.9111 13.8513 19.7671 13.3713 19.4791 13.0233C19.1911 12.6753 18.7471 12.5013 18.1471 12.5013C17.5471 12.5013 17.0851 12.7053 16.7611 13.1133C16.4371 13.5093 16.2691 14.0553 16.2571 14.7513H13.8091C13.8571 13.3113 14.2831 12.2193 15.0871 11.4753C15.9031 10.7313 16.9351 10.3593 18.1831 10.3593C19.5511 10.3593 20.6011 10.7253 21.3331 11.4573C22.0651 12.1773 22.4311 13.1313 22.4311 14.3193C22.4311 15.2553 22.1791 16.1493 21.6751 17.0013C21.1711 17.8533 20.5951 18.5973 19.9471 19.2333C19.2991 19.8573 18.4531 20.6133 17.4091 21.5013H22.7191V23.5893H13.8271V21.7173L14.7631 20.9253Z" fill="black"/>
<path d="M14.7631 20.9253L14.1229 20.157L14.1172 20.1619L14.7631 20.9253ZM17.5171 18.5313L18.1981 19.2637L18.2049 19.2572L17.5171 18.5313ZM19.2271 16.5153L20.0636 17.0633V17.0633L19.2271 16.5153ZM19.4791 13.0233L18.7087 13.6609L18.7087 13.6609L19.4791 13.0233ZM16.7611 13.1133L17.5351 13.7465L17.5397 13.7409L17.5442 13.7352L16.7611 13.1133ZM16.2571 14.7513V15.7513H17.24L17.257 14.7685L16.2571 14.7513ZM13.8091 14.7513L12.8097 14.718L12.7752 15.7513H13.8091V14.7513ZM15.0871 11.4753L14.4133 10.7363L14.4079 10.7413L15.0871 11.4753ZM21.3331 11.4573L20.626 12.1644L20.6319 12.1702L21.3331 11.4573ZM21.6751 17.0013L22.5358 17.5104V17.5104L21.6751 17.0013ZM19.9471 19.2333L20.6408 19.9536L20.6476 19.947L19.9471 19.2333ZM17.4091 21.5013L16.7612 20.7396L14.69 22.5013H17.4091V21.5013ZM22.7191 21.5013H23.7191V20.5013H22.7191V21.5013ZM22.7191 23.5893V24.5893H23.7191V23.5893H22.7191ZM13.8271 23.5893H12.8271V24.5893H13.8271V23.5893ZM13.8271 21.7173L13.1812 20.9539L12.8271 21.2535V21.7173H13.8271ZM15.4033 21.6935C16.562 20.7279 17.4954 19.917 18.1981 19.2636L16.8362 17.799C16.1709 18.4176 15.2682 19.2026 14.1229 20.1571L15.4033 21.6935ZM18.2049 19.2572C18.9379 18.5628 19.5599 17.8321 20.0636 17.0633L18.3907 15.9673C17.9823 16.5905 17.4643 17.2038 16.8294 17.8053L18.2049 19.2572ZM20.0636 17.0633C20.6008 16.2434 20.9111 15.3718 20.9111 14.4633H18.9111C18.9111 14.8988 18.7654 15.3952 18.3907 15.9673L20.0636 17.0633ZM20.9111 14.4633C20.9111 13.7011 20.7312 12.9677 20.2495 12.3857L18.7087 13.6609C18.803 13.7748 18.9111 14.0015 18.9111 14.4633H20.9111ZM20.2495 12.3857C19.7137 11.7383 18.9407 11.5013 18.1471 11.5013V13.5013C18.5535 13.5013 18.6685 13.6122 18.7087 13.6609L20.2495 12.3857ZM18.1471 11.5013C17.2942 11.5013 16.5219 11.8065 15.978 12.4914L17.5442 13.7352C17.6483 13.6041 17.8 13.5013 18.1471 13.5013V11.5013ZM15.9872 12.48C15.477 13.1036 15.2718 13.8936 15.2573 14.734L17.257 14.7685C17.2665 14.217 17.3972 13.915 17.5351 13.7465L15.9872 12.48ZM16.2571 13.7513H13.8091V15.7513H16.2571V13.7513ZM14.8086 14.7846C14.8506 13.524 15.2144 12.7199 15.7663 12.2092L14.4079 10.7413C13.3518 11.7186 12.8637 13.0985 12.8097 14.718L14.8086 14.7846ZM15.7609 12.2142C16.3684 11.6603 17.1495 11.3593 18.1831 11.3593V9.35929C16.7207 9.35929 15.4378 9.80228 14.4134 10.7363L15.7609 12.2142ZM18.1831 11.3593C19.3743 11.3593 20.1359 11.6743 20.626 12.1644L22.0402 10.7502C21.0663 9.77625 19.728 9.35929 18.1831 9.35929V11.3593ZM20.6319 12.1702C21.1425 12.6724 21.4311 13.3537 21.4311 14.3193H23.4311C23.4311 12.9089 22.9878 11.6821 22.0344 10.7444L20.6319 12.1702ZM21.4311 14.3193C21.4311 15.0657 21.2327 15.7851 20.8144 16.4921L22.5358 17.5104C23.1255 16.5135 23.4311 15.4449 23.4311 14.3193H21.4311ZM20.8144 16.4921C20.3508 17.276 19.8273 17.9497 19.2466 18.5196L20.6476 19.947C21.363 19.2448 21.9915 18.4306 22.5358 17.5104L20.8144 16.4921ZM19.2535 18.513C18.6258 19.1174 17.7967 19.8588 16.7612 20.7396L18.057 22.263C19.1095 21.3678 19.9724 20.5972 20.6408 19.9536L19.2535 18.513ZM17.4091 22.5013H22.7191V20.5013H17.4091V22.5013ZM21.7191 21.5013V23.5893H23.7191V21.5013H21.7191ZM22.7191 22.5893H13.8271V24.5893H22.7191V22.5893ZM14.8271 23.5893V21.7173H12.8271V23.5893H14.8271ZM14.4731 22.4807L15.4091 21.6887L14.1172 20.1619L13.1812 20.9539L14.4731 22.4807Z" fill="#49E89C" mask="url(#path-2-outside-1_17_1462)"/>
</svg>
