<svg width="26" height="28" viewBox="0 0 26 28" fill="none" xmlns="http://www.w3.org/2000/svg">
<path d="M13 27C20 27 25 24.5238 25 19.0123C25 13.0215 22 9.02764 16 6.03226L18.36 2.99692C18.4799 2.79778 18.5449 2.57052 18.5485 2.33818C18.5521 2.10584 18.4941 1.8767 18.3804 1.67396C18.2667 1.47122 18.1013 1.3021 17.901 1.18374C17.7008 1.06539 17.4727 1.002 17.24 1H8.76C8.52728 1.002 8.29924 1.06539 8.09898 1.18374C7.8987 1.3021 7.73334 1.47122 7.61964 1.67396C7.50592 1.8767 7.44792 2.10584 7.4515 2.33818C7.45508 2.57052 7.5201 2.79778 7.64 2.99692L10 6.05222C4 9.06758 1 13.0614 1 19.0522C1 24.5238 6 27 13 27Z" fill="#00A255" stroke="#00A255" stroke-width="2" stroke-linecap="round" stroke-linejoin="round"/>
<path d="M15.7656 13.6114C15.6705 13.3423 15.5237 13.0976 15.3372 12.8892C14.9405 12.446 14.3639 12.167 13.7222 12.167H12.0451C10.977 12.167 10.1111 13.0329 10.1111 14.101C10.1111 15.0099 10.7439 15.7962 11.6318 15.9904L14.1852 16.549C15.1799 16.7666 15.8889 17.648 15.8889 18.6662C15.8889 19.8629 14.9188 20.8338 13.7222 20.8338H12.2778C11.3344 20.8338 10.5318 20.2308 10.2344 19.3893" fill="#00A255"/>
<path d="M15.7656 13.6114C15.6705 13.3423 15.5237 13.0976 15.3372 12.8892C14.9405 12.446 14.3639 12.167 13.7222 12.167H12.0451C10.977 12.167 10.1111 13.0329 10.1111 14.101C10.1111 15.0099 10.7439 15.7962 11.6318 15.9904L14.1852 16.549C15.1799 16.7666 15.8889 17.648 15.8889 18.6662C15.8889 19.8629 14.9188 20.8338 13.7222 20.8338H12.2778C11.3344 20.8338 10.5318 20.2308 10.2344 19.3893" stroke="white" stroke-width="2" stroke-linecap="round" stroke-linejoin="round"/>
<path d="M13 12.1667V10V12.1667Z" fill="#00A255"/>
<path d="M13 12.1667V10" stroke="white" stroke-width="2" stroke-linecap="round" stroke-linejoin="round"/>
<path d="M13 23.0002V20.8334V23.0002Z" fill="#00A255"/>
<path d="M13 23.0002V20.8334" stroke="white" stroke-width="2" stroke-linecap="round" stroke-linejoin="round"/>
</svg>
