<svg width="182" height="18" viewBox="0 0 182 18" fill="none" xmlns="http://www.w3.org/2000/svg">
<path d="M10.4611 18L0.0361328 -7.15256e-07H2.41113L11.6361 16.025L20.8361 -7.15256e-07H23.2111L12.8111 18H10.4611ZM26.7566 18V3C26.7566 2.45 26.89 1.95 27.1566 1.5C27.4233 1.03333 27.7816 0.666666 28.2316 0.399999C28.6983 0.133332 29.2066 -7.15256e-07 29.7566 -7.15256e-07H41.7566C42.3066 -7.15256e-07 42.8066 0.133332 43.2566 0.399999C43.7233 0.666666 44.09 1.03333 44.3566 1.5C44.6233 1.95 44.7566 2.45 44.7566 3V18H42.7316V11.425H28.7816V18H26.7566ZM28.7816 9.4H42.7316V3C42.7316 2.73333 42.6316 2.50833 42.4316 2.325C42.2483 2.125 42.0233 2.025 41.7566 2.025H29.7566C29.49 2.025 29.2566 2.125 29.0566 2.325C28.8733 2.50833 28.7816 2.73333 28.7816 3V9.4ZM49.6051 18V-7.15256e-07H52.3801L65.5801 15.7V-7.15256e-07H67.6051V18H64.8301L51.6301 2.3V18H49.6051ZM75.4059 18C74.8559 18 74.3475 17.8667 73.8809 17.6C73.4309 17.3333 73.0725 16.975 72.8059 16.525C72.5392 16.0583 72.4059 15.55 72.4059 15V3C72.4059 2.45 72.5392 1.95 72.8059 1.5C73.0725 1.03333 73.4309 0.666666 73.8809 0.399999C74.3475 0.133332 74.8559 -7.15256e-07 75.4059 -7.15256e-07H87.4059C87.9559 -7.15256e-07 88.4559 0.133332 88.9059 0.399999C89.3725 0.666666 89.7392 1.03333 90.0059 1.5C90.2725 1.95 90.4059 2.45 90.4059 3V3.725H88.3809V3C88.3809 2.73333 88.2809 2.50833 88.0809 2.325C87.8975 2.125 87.6725 2.025 87.4059 2.025H75.4059C75.1392 2.025 74.9059 2.125 74.7059 2.325C74.5225 2.50833 74.4309 2.73333 74.4309 3V15C74.4309 15.2667 74.5225 15.5 74.7059 15.7C74.9059 15.8833 75.1392 15.975 75.4059 15.975H87.4059C87.6725 15.975 87.8975 15.8833 88.0809 15.7C88.2809 15.5 88.3809 15.2667 88.3809 15V10.55H83.9309V8.5H90.4059V15C90.4059 15.55 90.2725 16.0583 90.0059 16.525C89.7392 16.975 89.3725 17.3333 88.9059 17.6C88.4559 17.8667 87.9559 18 87.4059 18H75.4059ZM98.1078 18C97.5578 18 97.0495 17.8667 96.5828 17.6C96.1328 17.3333 95.7745 16.975 95.5078 16.525C95.2411 16.0583 95.1078 15.55 95.1078 15V-7.15256e-07H97.1328V15C97.1328 15.2667 97.2245 15.5 97.4078 15.7C97.6078 15.8833 97.8411 15.975 98.1078 15.975H110.108C110.374 15.975 110.599 15.8833 110.783 15.7C110.983 15.5 111.083 15.2667 111.083 15V-7.15256e-07H113.108V15C113.108 15.55 112.974 16.0583 112.708 16.525C112.441 16.975 112.074 17.3333 111.608 17.6C111.158 17.8667 110.658 18 110.108 18H98.1078ZM117.911 18V3C117.911 2.45 118.044 1.95 118.311 1.5C118.578 1.03333 118.936 0.666666 119.386 0.399999C119.853 0.133332 120.361 -7.15256e-07 120.911 -7.15256e-07H132.911C133.461 -7.15256e-07 133.961 0.133332 134.411 0.399999C134.878 0.666666 135.244 1.03333 135.511 1.5C135.778 1.95 135.911 2.45 135.911 3V18H133.886V11.425H119.936V18H117.911ZM119.936 9.4H133.886V3C133.886 2.73333 133.786 2.50833 133.586 2.325C133.403 2.125 133.178 2.025 132.911 2.025H120.911C120.644 2.025 120.411 2.125 120.211 2.325C120.028 2.50833 119.936 2.73333 119.936 3V9.4ZM155.959 18L150.084 11H152.734L158.634 17.975V18H155.959ZM140.759 18V0.024999H155.759C156.309 0.024999 156.809 0.166666 157.259 0.449999C157.726 0.716666 158.093 1.075 158.359 1.525C158.626 1.975 158.759 2.475 158.759 3.025V8.3C158.759 8.85 158.626 9.35 158.359 9.8C158.093 10.25 157.726 10.6167 157.259 10.9C156.809 11.1667 156.309 11.3 155.759 11.3H142.784V18H140.759ZM143.759 9.25H155.759C156.026 9.25 156.251 9.15833 156.434 8.975C156.634 8.79167 156.734 8.56667 156.734 8.3V3.025C156.734 2.75833 156.634 2.53333 156.434 2.35C156.251 2.15 156.026 2.05 155.759 2.05H143.759C143.493 2.05 143.259 2.15 143.059 2.35C142.876 2.53333 142.784 2.75833 142.784 3.025V8.3C142.784 8.56667 142.876 8.79167 143.059 8.975C143.259 9.15833 143.493 9.25 143.759 9.25ZM163.439 18V-7.15256e-07H178.439C178.989 -7.15256e-07 179.489 0.133332 179.939 0.399999C180.406 0.666666 180.773 1.03333 181.039 1.5C181.306 1.95 181.439 2.45 181.439 3V15C181.439 15.55 181.306 16.0583 181.039 16.525C180.773 16.975 180.406 17.3333 179.939 17.6C179.489 17.8667 178.989 18 178.439 18H163.439ZM166.439 15.975H178.439C178.706 15.975 178.931 15.8833 179.114 15.7C179.314 15.5 179.414 15.2667 179.414 15V3C179.414 2.73333 179.314 2.50833 179.114 2.325C178.931 2.125 178.706 2.025 178.439 2.025H166.439C166.173 2.025 165.939 2.125 165.739 2.325C165.556 2.50833 165.464 2.73333 165.464 3V15C165.464 15.2667 165.556 15.5 165.739 15.7C165.939 15.8833 166.173 15.975 166.439 15.975Z" fill="#FF9040"/>
</svg>
