<svg width="16" height="16" viewBox="0 0 16 16" fill="none" xmlns="http://www.w3.org/2000/svg">
<path fill-rule="evenodd" clip-rule="evenodd" d="M0 4.97681C0 2.76767 1.79086 0.976807 4 0.976807H11.4286C11.7441 0.976807 12 1.23264 12 1.54824V3.1459H3.83482C3.44033 3.1459 3.12054 3.46569 3.12054 3.86018C3.12054 4.25466 3.44033 4.57447 3.83482 4.57447H12.5024C12.525 4.57447 12.5474 4.57341 12.5695 4.57135H12.8138C13.2685 4.57135 13.7045 4.75195 14.0259 5.07345C14.3474 5.39494 14.5281 5.83097 14.5281 6.28563V7.3327H11.1574C10.2152 7.3327 9.15744 8.04671 9.15744 9.26938V11.3019C9.15744 12.5245 10.2152 13.2386 11.1574 13.2386H14.5281V14.2856C14.5281 14.7403 14.3474 15.1763 14.0259 15.4978C13.7045 15.8193 13.2685 15.9998 12.8138 15.9998L1.71429 16C1.25962 16 0.823593 15.8193 0.502103 15.4978C0.180611 15.1763 0 14.7403 0 14.2857V4.97681ZM11.1574 8.76127H15.1575C15.473 8.76127 15.7289 8.98875 15.7289 9.26938V11.3019C15.7289 11.5825 15.473 11.81 15.1575 11.81H11.1574C10.8418 11.81 10.586 11.5825 10.586 11.3019V9.26938C10.586 8.98875 10.8418 8.76127 11.1574 8.76127Z" fill="white"/>
</svg>
