<svg width="16" height="16" viewBox="0 0 16 16" fill="none" xmlns="http://www.w3.org/2000/svg">
<path d="M13.7144 12.0001V14.2858C13.7144 14.5889 13.5939 14.8796 13.3796 15.0939C13.1654 15.3082 12.8746 15.4286 12.5715 15.4286H1.71439C1.41128 15.4286 1.1206 15.3082 0.906268 15.0939C0.691941 14.8796 0.571533 14.5889 0.571533 14.2858V5.71434C0.571533 3.8208 2.10656 2.28577 4.0001 2.28577H11.4287V5.14291" stroke="black" stroke-linecap="round" stroke-linejoin="round"/>
<path d="M14.8573 8.57153H10.8573C10.5417 8.57153 10.2859 8.82737 10.2859 9.14296V11.4287C10.2859 11.7442 10.5417 12.0001 10.8573 12.0001H14.8573C15.1729 12.0001 15.4287 11.7442 15.4287 11.4287V9.14296C15.4287 8.82737 15.1729 8.57153 14.8573 8.57153Z" stroke="black" stroke-linecap="round" stroke-linejoin="round"/>
<path d="M13.7143 8.57152V6.2858C13.7143 5.98269 13.5938 5.69201 13.3795 5.47768C13.1653 5.26336 12.8745 5.14294 12.5714 5.14294H11.4286H4" stroke="black" stroke-linecap="round" stroke-linejoin="round"/>
</svg>
